<?xml version="1.0" encoding="UTF-8"?>
<!DOCTYPE svg PUBLIC "-//W3C//DTD SVG 1.1//EN" "http://www.w3.org/Graphics/SVG/1.1/DTD/svg11.dtd">
<svg xmlns="http://www.w3.org/2000/svg" version="1.1" width="200px" height="200px" style="shape-rendering:geometricPrecision; text-rendering:geometricPrecision; image-rendering:optimizeQuality; fill-rule:evenodd; clip-rule:evenodd" xmlns:xlink="http://www.w3.org/1999/xlink">
<g><path style="opacity:0.965" fill="#000000" d="M 27.5,-0.5 C 53.1667,-0.5 78.8333,-0.5 104.5,-0.5C 119.719,4.89527 129.219,15.5619 133,31.5C 134.786,41.0046 136.286,50.5046 137.5,60C 137.776,88.8088 137.442,117.975 136.5,147.5C 115.847,127.347 95.3471,107.014 75,86.5C 74.1685,94.1883 74.3352,101.855 75.5,109.5C 100.82,134.319 125.986,159.319 151,184.5C 152.123,175.905 152.623,167.239 152.5,158.5C 151.825,118.502 151.325,78.5025 151,38.5C 150.13,27.0085 146.797,16.3419 141,6.5C 138.604,3.93337 136.104,1.60004 133.5,-0.5C 145.167,-0.5 156.833,-0.5 168.5,-0.5C 185.841,5.13643 195.341,17.1364 197,35.5C 197.426,78.0822 197.592,120.582 197.5,163C 193.667,182.167 182.167,193.667 163,197.5C 146.258,197.545 129.424,197.379 112.5,197C 84.5335,200.11 67.7002,187.943 62,160.5C 60.5029,151.853 59.3362,143.187 58.5,134.5C 58.1949,105.945 58.5282,77.2779 59.5,48.5C 80.1529,68.6527 100.653,88.9861 121,109.5C 121.831,101.812 121.665,94.145 120.5,86.5C 94.874,61.3743 69.374,36.041 44,10.5C 43.2325,59.5076 43.5658,108.508 45,157.5C 45.5581,169.075 48.8915,179.742 55,189.5C 57.2047,192.04 59.7047,194.207 62.5,196C 53.6625,197.635 44.6625,197.968 35.5,197C 17.3756,195.025 5.37563,185.525 -0.5,168.5C -0.5,121.5 -0.5,74.5 -0.5,27.5C 3.83333,13.1667 13.1667,3.83333 27.5,-0.5 Z"/></g>
</svg>
