<svg xmlns="http://www.w3.org/2000/svg" width="900" height="900" viewBox="0 0 900 900" version="1.1"><path d="M 296.815 179.141 C 293.888 180.212, 290.865 184.599, 283.475 198.500 C 276.541 211.541, 271.864 219.050, 262.663 231.909 C 253.881 244.183, 231.002 268.606, 219.500 277.983 C 211.581 284.439, 191.086 298.067, 177.198 306.112 C 172.081 309.075, 164.445 313.756, 160.229 316.512 C 144.504 326.794, 144.395 329.154, 157.335 379.157 C 166.377 414.097, 171.834 431.852, 179.570 451.500 C 181.953 457.550, 186.128 468.800, 188.849 476.500 C 195.874 496.378, 208.033 525.612, 214.635 538.500 C 217.735 544.550, 224.191 557.163, 228.982 566.528 C 233.774 575.893, 238.820 585.343, 240.196 587.528 C 241.571 589.713, 247.091 599.375, 252.461 609 C 262.069 626.219, 265.808 632.148, 281.469 655 C 294.117 673.456, 301.758 683.725, 312.047 696.094 C 317.351 702.471, 325.070 712.146, 329.200 717.594 C 333.329 723.042, 340.490 731.775, 345.112 737 C 349.733 742.225, 355.509 748.975, 357.947 752 C 365.749 761.683, 436.336 832.070, 440.307 834.127 C 442.667 835.349, 444.921 835.842, 446.238 835.424 C 448.946 834.565, 504.900 779.757, 525.368 757.916 C 563.720 716.991, 593.358 679.174, 628.640 626.145 C 640.310 608.605, 659.895 575.151, 668.318 558.369 C 686.959 521.228, 704.007 477.112, 715.027 437.500 C 716.251 433.100, 718.078 426.575, 719.087 423 C 724.694 403.144, 729.144 379.891, 732.974 350.444 C 734.750 336.792, 734.775 335.428, 733.299 332.928 C 732.283 331.209, 725.135 326.295, 713.750 319.488 C 681.286 300.080, 654.262 278.032, 634.341 254.701 C 623.652 242.182, 607.501 218.358, 597.298 200.061 C 590.361 187.622, 585.389 181.580, 580.282 179.384 C 577.590 178.226, 554.368 178.013, 438.282 178.079 C 350.067 178.129, 298.522 178.516, 296.815 179.141 M 449 187.686 C 444.472 189.656, 427.421 206.786, 422.396 214.413 L 418.500 220.326 418 309.913 L 417.500 399.500 315.750 399.755 L 214 400.009 214 423.505 L 214 447 216.250 447.025 C 217.488 447.039, 221.425 447.223, 225 447.434 C 228.575 447.645, 273.220 448.145, 324.211 448.545 L 416.923 449.272 417.243 506.386 C 417.419 537.799, 417.665 608.437, 417.791 663.360 C 417.916 718.284, 418.266 763.621, 418.568 764.110 C 418.871 764.600, 430.955 765, 445.423 765 L 471.728 765 472.364 760.360 C 472.714 757.809, 473.014 741.946, 473.031 725.110 C 473.048 708.275, 473.472 673.350, 473.973 647.500 C 474.474 621.650, 475.206 566.638, 475.598 525.250 L 476.312 450 579.156 450 L 682 450 682 425.607 C 682 405.201, 681.763 401.123, 680.547 400.657 C 679.748 400.350, 641.386 399.964, 595.297 399.800 C 549.209 399.635, 503.512 399.367, 493.750 399.205 L 476 398.911 476 315.537 C 476 269.682, 476.280 231.435, 476.621 230.545 C 477.464 228.348, 482.245 226, 485.873 226 C 490.500 226, 494.591 231.023, 500.988 244.556 C 504.150 251.246, 507.294 257.063, 507.975 257.484 C 509.752 258.583, 517.964 258.257, 521.085 256.965 C 525.511 255.131, 526.382 251.838, 526.761 235.500 L 527.109 220.500 523.305 214.041 C 518.499 205.883, 503.975 191.082, 497.934 188.188 C 493.677 186.148, 491.988 186.006, 472.934 186.082 C 456.972 186.145, 451.734 186.496, 449 187.686 M 554.452 224.250 C 556.126 231.993, 556.096 234.508, 554.301 237.087 C 545.166 250.211, 543.795 254.722, 546.038 264.266 C 548.135 273.187, 549.264 274.585, 556.179 276.824 C 561.720 278.619, 562.709 278.685, 565.154 277.421 C 566.664 276.639, 568.623 276, 569.507 276 C 571.461 276, 574.456 269.526, 576.691 260.469 C 578.074 254.863, 578.138 252.871, 577.110 247.294 C 575.581 238.997, 573.300 234.586, 567.833 229.355 C 564.078 225.762, 556.430 221, 554.415 221 C 554.049 221, 554.066 222.463, 554.452 224.250 M 254.766 280.059 C 252.155 280.493, 249.440 282.186, 245.739 285.686 C 240.921 290.242, 239.897 290.753, 234.328 291.383 L 228.210 292.076 227.684 295.788 C 226.844 301.713, 227.415 379.369, 228.309 380.750 C 228.946 381.734, 247.401 382, 315.040 382 L 400.962 382 401.509 379.750 C 401.810 378.512, 401.931 358.833, 401.778 336.017 L 401.500 294.534 398 293.946 C 393.309 293.158, 389.129 290.841, 385.500 287.019 C 378.897 280.066, 379.537 280.186, 347.124 279.826 L 317.748 279.500 316.252 281.750 C 314.425 284.498, 311.327 284.641, 308.564 282.105 C 306.685 280.380, 304.350 280.176, 282.500 279.824 C 269.300 279.612, 256.820 279.718, 254.766 280.059 M 552.500 282.551 C 543.739 284.694, 541.392 285.845, 540.130 288.615 C 539.447 290.112, 539 297.151, 539 306.388 C 539 314.800, 538.704 328.529, 538.341 336.898 L 537.683 352.113 534.727 352.705 C 530.699 353.510, 525.242 359.195, 524.451 363.407 C 523.511 368.419, 524.680 372.297, 528.443 376.650 L 531.771 380.500 573.805 380.500 L 615.838 380.500 618.514 378 C 624.234 372.656, 625.641 365.204, 622.044 359.304 C 618.682 353.791, 616.909 353.255, 600 352.636 C 591.475 352.324, 584.406 352.053, 584.290 352.034 C 584.175 352.015, 583.950 337.872, 583.790 320.604 C 583.459 284.743, 583.800 286.118, 574.574 283.531 C 566.508 281.269, 559.084 280.940, 552.500 282.551 M 255.750 286.080 C 254.137 287.020, 254.001 289.773, 254.015 321.300 C 254.024 340.110, 254.393 356.070, 254.835 356.767 C 255.458 357.749, 261.591 357.974, 282.069 357.767 L 308.500 357.500 308.764 325.146 L 309.028 292.793 305.132 288.896 L 301.235 285 279.368 285.030 C 266.383 285.048, 256.789 285.475, 255.750 286.080 M 328.164 286.689 C 321.515 289.965, 321.500 290.050, 321.500 323.955 C 321.500 340.755, 321.823 355.288, 322.219 356.250 C 322.878 357.855, 325.158 358, 349.826 358 L 376.715 358 377.358 351.853 C 377.711 348.473, 378 332.755, 378 316.925 C 378 292.093, 377.784 287.927, 376.429 286.571 C 374.049 284.191, 333.030 284.292, 328.164 286.689 M 551.500 285.672 C 540.833 288.019, 540.433 293.617, 550.719 296.607 C 557.120 298.468, 571.976 298.154, 575.859 296.076 C 578.876 294.461, 580.523 290.094, 578.774 288.345 C 576.204 285.776, 558.787 284.069, 551.500 285.672 M 238.667 298.667 C 238.300 299.033, 238 312.478, 238 328.544 C 238 360.003, 238.091 360.550, 243.195 359.827 L 245.500 359.500 245.790 332 C 246.134 299.423, 245.980 298, 242.121 298 C 240.588 298, 239.033 298.300, 238.667 298.667 M 542.733 301.250 C 542.461 303.038, 542.297 315.075, 542.369 328 L 542.500 351.500 560.595 351.772 L 578.690 352.044 579.345 339.865 C 580.228 323.453, 580.148 300.781, 579.202 299.293 C 578.610 298.361, 577.532 298.408, 574.468 299.499 C 569.255 301.356, 555.915 301.356, 549 299.500 C 545.975 298.688, 543.439 298.018, 543.363 298.012 C 543.288 298.005, 543.004 299.462, 542.733 301.250 M 383.368 300.193 C 382 302.372, 381.590 355.366, 382.923 357.856 C 384.208 360.256, 388.141 360.740, 389.830 358.705 C 391.035 357.253, 391.282 319.504, 390.168 307 C 389.529 299.823, 389.385 299.487, 386.844 299.193 C 385.384 299.024, 383.819 299.474, 383.368 300.193 M 254.250 366.654 C 252.458 367.389, 252.706 371.673, 254.582 372.393 C 255.452 372.727, 267.855 373, 282.145 373 L 308.127 373 307.813 369.750 L 307.500 366.500 281.500 366.320 C 267.200 366.222, 254.938 366.372, 254.250 366.654 M 325.250 367.022 C 324.012 367.525, 323.007 368.513, 323.015 369.218 C 323.060 372.927, 323.967 373.040, 351.569 372.767 L 378.500 372.500 378.500 369.500 L 378.500 366.500 353 366.305 C 338.975 366.197, 326.488 366.520, 325.250 367.022 M 336.193 469.072 C 321.881 470.931, 313.204 475.698, 303.567 487 C 294.992 497.057, 290.908 507.867, 288.595 526.636 C 288.080 530.812, 288.260 531.886, 289.563 532.386 C 290.444 532.724, 298.976 533.295, 308.524 533.655 L 325.884 534.310 326.462 531.405 C 327.675 525.313, 333.510 515.588, 337.732 512.621 C 342.859 509.017, 350.229 508.033, 354.715 510.352 C 359.570 512.863, 363.940 516.961, 365.938 520.878 C 369.606 528.068, 372.532 558.685, 370.987 573.706 C 368.911 593.886, 364.012 603.666, 353.500 608.622 C 348.200 611.120, 344.126 611.060, 338.880 608.408 C 335.248 606.571, 327.764 598.031, 323.332 590.665 C 321.291 587.274, 319.145 584.163, 318.561 583.751 C 317.977 583.338, 310.975 583.113, 303 583.251 L 288.500 583.500 288.677 591 C 288.975 603.621, 295.757 621.593, 304.175 632.068 C 312.934 642.968, 327.510 650.809, 341.500 652.148 C 363.111 654.215, 375.979 648.735, 391.844 630.709 C 399.656 621.833, 402.899 615.569, 407.570 600.338 C 411.176 588.583, 411.205 588.342, 411.740 565.931 C 412.748 523.664, 409.059 506.707, 395.129 489.579 C 385.344 477.547, 375.202 470.888, 363.862 469.047 C 356.594 467.868, 345.391 467.878, 336.193 469.072 M 528.988 469.001 C 518.755 470.737, 507.314 479.157, 497.565 492.126 C 486.666 506.624, 484.029 517.441, 483.293 550.662 C 482.542 584.548, 484.318 596.512, 492.914 615.471 C 499.470 629.929, 516.199 646.580, 528.160 650.553 C 532.184 651.890, 535.904 652.137, 546.842 651.793 C 559.843 651.385, 560.837 651.204, 567.500 648.018 C 572.626 645.568, 576.673 642.506, 582.615 636.586 C 591.196 628.036, 594.096 623.297, 598.359 610.865 C 601.198 602.587, 604.177 585.227, 602.895 584.435 C 602.459 584.166, 595.645 583.667, 587.752 583.326 L 573.401 582.706 567.996 591.914 C 556.127 612.134, 544.827 615.800, 532.810 603.329 C 524.001 594.188, 520.651 575.747, 522.939 549 C 525.176 522.843, 527.986 515.758, 538.136 510.681 C 543.338 508.078, 544.107 507.952, 548.134 509.036 C 556.098 511.181, 563.059 520.152, 565.488 531.404 L 566.115 534.308 583.001 533.644 C 592.289 533.279, 600.493 532.748, 601.232 532.464 C 602.292 532.058, 602.424 530.202, 601.853 523.724 C 600.864 512.501, 599.468 506.832, 595.949 499.738 C 589.438 486.616, 578.801 475.643, 569.142 472.085 C 559.161 468.408, 540.797 466.997, 528.988 469.001" stroke="none" fill="#faf10f" fill-rule="evenodd"/><path d="M 416.563 23.931 C 414.793 25.887, 397.042 77.028, 397.015 80.250 C 397.003 81.685, 397.899 82, 402 82 C 408.059 82, 410.488 79.990, 411.472 74.163 C 411.849 71.937, 412.684 69.699, 413.328 69.190 C 413.973 68.681, 419.131 67.958, 424.791 67.584 L 435.081 66.903 438.051 73.451 L 441.020 80 447.510 80 C 452.470 80, 454 79.663, 454 78.571 C 454 77.784, 451.929 72.722, 449.398 67.321 C 446.866 61.919, 441.449 50.075, 437.358 41 C 433.268 31.925, 429.178 23.938, 428.269 23.250 C 425.652 21.269, 418.600 21.679, 416.563 23.931 M 453.750 22.558 C 452.556 23.792, 452.882 30.482, 454.200 31.800 C 454.860 32.460, 457.897 33.007, 460.950 33.015 C 469.693 33.039, 469.558 32.757, 468.190 48.174 C 465.734 75.862, 465.593 80.129, 467.099 81.082 C 467.870 81.570, 470.586 81.976, 473.136 81.985 L 477.773 82 478.359 77.750 C 478.682 75.412, 479.203 70.575, 479.517 67 C 480.928 50.967, 482.122 39.320, 482.571 37.211 C 483.041 35, 483.309 34.945, 490.425 35.589 C 497.207 36.204, 497.880 36.093, 498.896 34.194 C 499.503 33.060, 500 30.802, 500 29.177 C 500 25.629, 499.502 25.497, 480.500 24.031 C 473.350 23.480, 464.575 22.748, 461 22.406 C 457.425 22.063, 454.163 22.132, 453.750 22.558 M 371.078 27.552 C 367.545 28.318, 364.194 29.406, 363.631 29.969 C 362.141 31.459, 361.185 40.735, 361.053 55 C 360.916 69.693, 361.081 69.740, 352.300 52.500 C 345.291 38.740, 342.317 33.990, 340.737 34.037 C 340.057 34.057, 336.575 34.866, 333 35.836 L 326.500 37.598 326.715 42.768 C 326.833 45.611, 327.800 51.664, 328.863 56.219 C 329.926 60.774, 331.783 69, 332.991 74.500 C 336.979 92.670, 337.272 93.467, 340.087 93.798 C 344.508 94.318, 348 92.375, 348 89.395 C 348 87.080, 344.928 71.544, 342.090 59.509 C 341.573 57.314, 341.285 55.381, 341.452 55.215 C 341.619 55.048, 345.566 62.469, 350.224 71.706 L 358.692 88.500 363.262 88.442 C 370.527 88.351, 370.631 88.108, 371.265 69.750 C 371.573 60.813, 372.262 52.375, 372.797 51 C 373.681 48.722, 373.828 48.944, 374.447 53.500 C 375.332 60.011, 379.790 79.845, 381.032 82.795 C 381.878 84.805, 382.465 85.009, 385.749 84.429 C 392.113 83.306, 392.297 82.721, 389.980 70.947 C 386.205 51.758, 380.766 28.514, 379.755 27.250 C 379.205 26.563, 378.473 26.036, 378.128 26.079 C 377.782 26.123, 374.610 26.786, 371.078 27.552 M 510.635 29.113 C 509.785 32.013, 503.055 67.868, 501.883 75.744 C 501.208 80.279, 500.954 84.287, 501.318 84.652 C 502.335 85.669, 511.405 86.896, 512.226 86.128 C 512.993 85.410, 514.206 79.555, 518.468 56 C 519.911 48.025, 521.596 39.122, 522.212 36.217 C 523.571 29.812, 523.066 29.150, 516.195 28.337 C 512.268 27.872, 510.945 28.056, 510.635 29.113 M 545.265 39.422 C 530.177 46.271, 521.704 67.399, 528.390 81.500 C 532.811 90.823, 541.751 97.108, 552.646 98.549 C 562.459 99.848, 572.895 94.206, 578.481 84.584 C 581.256 79.804, 584 69.803, 584 64.472 C 584 50.462, 571.742 39.146, 555.673 38.322 C 550.803 38.072, 547.461 38.425, 545.265 39.422 M 421.575 40.083 C 420.494 43.208, 418 53.889, 418 55.394 C 418 56.688, 419.153 57, 423.941 57 C 427.209 57, 430.149 56.568, 430.475 56.041 C 431.047 55.116, 424.818 41.454, 422.971 39.583 C 422.424 39.029, 421.871 39.227, 421.575 40.083 M 295 49.204 C 293.075 49.685, 285.313 52.624, 277.750 55.734 C 266.390 60.406, 263.999 61.746, 263.992 63.444 C 263.982 66.297, 282.859 112.126, 284.868 114.124 C 286.374 115.623, 286.828 115.601, 290.750 113.836 C 296.125 111.418, 296.223 109.517, 291.500 99.294 C 286.505 88.483, 286.865 87, 294.486 87 C 296.922 87, 300.644 88.869, 308.430 94 C 314.272 97.850, 319.827 100.987, 320.775 100.972 C 323.378 100.929, 331.500 96.512, 331.500 95.139 C 331.500 93.993, 322.574 87.685, 312.528 81.731 L 307.855 78.961 310.341 76.006 C 313.528 72.219, 315.373 66.613, 314.639 62.945 C 312.837 53.933, 303.161 47.163, 295 49.204 M 549.650 50.499 C 545.864 52.474, 542.868 56.355, 540.828 61.930 C 537.602 70.744, 538.944 78.918, 544.452 84 C 546.754 86.124, 548.123 86.500, 553.564 86.500 C 559.554 86.500, 560.193 86.273, 563.485 82.982 C 570.677 75.790, 573.360 60.958, 568.512 55.196 C 563.684 49.459, 555.535 47.429, 549.650 50.499 M 605.323 57.250 C 604.816 57.938, 599.073 69.178, 592.561 82.230 C 579.688 108.029, 579.846 107.318, 586.249 110.629 C 588.596 111.843, 589.432 111.887, 590.665 110.863 C 591.502 110.168, 595.363 103.277, 599.244 95.550 C 603.125 87.822, 606.434 81.950, 606.598 82.500 C 606.761 83.050, 607.617 91.600, 608.498 101.500 C 609.380 111.400, 610.336 120.295, 610.623 121.267 C 611.164 123.097, 617.811 127, 620.388 127 C 622.143 127, 647.307 78.242, 646.558 76.291 C 645.882 74.529, 639.501 71.585, 637.841 72.269 C 637.103 72.573, 633.143 79.382, 629.040 87.400 C 624.937 95.419, 621.273 101.647, 620.899 101.240 C 620.524 100.833, 619.699 93.525, 619.065 85 C 617.303 61.306, 617.215 60.951, 612.500 58.290 C 607.901 55.695, 606.608 55.507, 605.323 57.250 M 285.750 64.162 C 282.038 65.870, 279 67.870, 279 68.607 C 279 71.041, 283.374 79, 284.711 79 C 285.433 79, 289.397 77.377, 293.520 75.394 C 301.828 71.397, 303.514 68.799, 300.872 64.069 C 298.777 60.318, 294.044 60.347, 285.750 64.162 M 226.500 81.597 C 220.122 84.844, 213.291 91.371, 210.905 96.500 C 209.766 98.947, 209.035 102.788, 209.022 106.395 C 208.982 117.256, 218.171 131.879, 228.439 137.294 C 233.851 140.148, 243.625 140.110, 250.170 137.209 C 259.471 133.087, 267.078 123.617, 268.567 114.304 C 270.318 103.354, 260.285 86.677, 248.300 80.618 C 243.158 78.018, 232.598 78.492, 226.500 81.597 M 230.274 92.093 C 221.927 96.225, 219.709 105.010, 224.557 114.739 C 225.964 117.561, 228.890 121.475, 231.060 123.435 C 234.677 126.703, 235.516 127, 241.121 127 C 246.872 127, 247.462 126.773, 251.053 123.183 C 253.152 121.083, 255.195 118.072, 255.591 116.492 C 257.273 109.791, 250.700 96.666, 243.569 92.487 C 238.394 89.455, 235.762 89.377, 230.274 92.093 M 682.951 109.401 C 676.833 110.998, 672.219 113.989, 666.592 120.005 C 660.239 126.797, 657.022 133.933, 657.010 141.261 C 656.997 148.835, 659.724 154.503, 666.435 160.850 C 672.395 166.487, 677.972 168.550, 684.743 167.622 C 689.999 166.901, 697 163.444, 697 161.569 C 697 159.794, 691.928 152, 690.773 152 C 690.293 152, 688.550 152.699, 686.898 153.553 C 685.097 154.484, 682.058 154.984, 679.300 154.803 C 675.359 154.543, 674.271 153.963, 671.655 150.722 C 668.131 146.357, 667.816 142.297, 670.555 136.525 C 672.930 131.519, 681.268 122.546, 684.966 121.014 C 689.136 119.287, 694.356 120.495, 698.521 124.153 C 701.752 126.989, 702 127.627, 702 133.083 C 702 138.950, 702.006 138.963, 706.075 141.038 C 711.030 143.566, 713.191 143.286, 714.106 139.995 C 717.217 128.816, 710.679 116.857, 698.500 111.447 C 691.741 108.445, 688.332 107.996, 682.951 109.401 M 176.491 118.610 C 170.446 123.895, 164.037 129.348, 162.250 130.728 C 158.190 133.863, 158.158 135.831, 162.108 139.563 C 163.818 141.178, 171.742 150.262, 179.717 159.750 C 187.790 169.353, 194.956 177, 195.882 177 C 196.796 177, 199.221 175.618, 201.270 173.929 C 205.704 170.274, 205.750 170.411, 196.592 160.019 C 192.967 155.904, 190 152.240, 190 151.877 C 190 151.514, 193.834 147.962, 198.519 143.984 L 207.039 136.751 205.269 133.731 C 204.296 132.070, 202.751 130.240, 201.836 129.665 C 200.116 128.584, 200.257 128.487, 187.209 139.654 L 182.918 143.326 178.959 139.460 C 176.782 137.334, 175 135.260, 175 134.852 C 175 133.902, 181.993 127.365, 188.750 121.999 C 191.637 119.706, 194 117.150, 194 116.319 C 194 114.280, 190.157 109, 188.673 109 C 188.018 109, 182.536 113.324, 176.491 118.610 M 724.500 153.137 C 719 158.115, 709.664 166.534, 703.753 171.844 C 697.842 177.155, 693.005 181.746, 693.003 182.046 C 692.997 183.152, 721.147 215, 722.131 215 C 723.309 215, 729 209.590, 729 208.469 C 729 207.873, 724.500 202.575, 719 196.697 C 713.500 190.819, 709 185.653, 709 185.217 C 709 184.781, 711.287 182.192, 714.082 179.462 L 719.164 174.500 724.832 180.974 C 727.949 184.535, 732.159 189.260, 734.187 191.474 L 737.874 195.500 741.378 193.624 C 743.306 192.592, 745.125 191.116, 745.422 190.344 C 745.886 189.133, 731.985 172.345, 728.980 170.488 C 727.047 169.293, 728.061 166.333, 731.563 162.946 L 735.125 159.500 745.656 170.750 C 751.448 176.938, 756.741 182, 757.419 182 C 758.623 182, 761.982 178.770, 763.428 176.222 C 763.889 175.408, 761.656 172.321, 757.280 167.722 C 753.501 163.750, 747.505 157.125, 743.955 153 C 737.601 145.615, 735.988 144.004, 735 144.057 C 734.725 144.072, 730 148.158, 724.500 153.137 M 287.185 159.978 C 282.044 161.212, 279.554 164.322, 274.482 175.842 C 268.809 188.729, 261.970 202.502, 258.578 207.877 C 253.220 216.363, 238.792 233.226, 223.501 248.873 C 201.873 271.004, 196.088 275.373, 168 290.788 C 149.669 300.848, 132.688 312.021, 130.384 315.537 C 127.575 319.824, 128.267 327.547, 133.519 350.526 C 141.054 383.492, 144.697 397.735, 150.524 417 C 154.026 428.580, 168.721 470.899, 173.442 483 C 175.480 488.225, 178.968 497.450, 181.192 503.500 C 192.666 534.715, 217.130 584.651, 236.553 616.500 C 244.602 629.700, 255.264 647.250, 260.245 655.500 C 274.106 678.457, 277.361 683.241, 290.866 700.500 C 337.201 759.715, 358.976 783.271, 418.279 838.333 C 432.523 851.558, 436.322 854, 442.652 854 C 451.958 854, 463.756 844.144, 511.682 796.334 C 554.111 754.007, 566.497 739.949, 610.112 684.620 C 616.251 676.832, 648.539 628.599, 656.716 615 C 677.178 580.971, 682.335 571.409, 691.497 550.500 C 694.630 543.350, 698.699 534.125, 700.539 530 C 705.244 519.454, 709.985 507.058, 719.541 480.310 C 735.859 434.635, 741.224 414.945, 748.915 372.500 C 749.413 369.750, 751.548 358.833, 753.660 348.240 C 757.218 330.395, 757.388 328.781, 755.974 326.263 C 754.093 322.911, 746.999 317.481, 739.301 313.500 C 723.809 305.488, 702.978 292.893, 693.277 285.672 C 678.547 274.708, 649.873 245.900, 638.191 230.331 C 625.394 213.274, 619.305 203.635, 611.139 187.500 C 602.502 170.435, 598.058 164.977, 590.226 161.813 L 584.500 159.500 437.500 159.341 C 356.650 159.254, 289.008 159.540, 287.185 159.978 M 125.870 173.967 C 124.423 174.405, 121.858 175.785, 120.168 177.034 C 116.822 179.507, 100 200.171, 100 201.808 C 100 203.001, 142.814 236.142, 145 236.641 C 145.946 236.857, 148.899 233.605, 153 227.831 C 163.826 212.588, 164.983 210.262, 164.992 203.710 C 165.005 194.467, 160.269 186.952, 150.116 180.105 C 141.022 173.973, 132.764 171.882, 125.870 173.967 M 296.815 179.141 C 293.888 180.212, 290.865 184.599, 283.475 198.500 C 276.541 211.541, 271.864 219.050, 262.663 231.909 C 253.881 244.183, 231.002 268.606, 219.500 277.983 C 211.581 284.439, 191.086 298.067, 177.198 306.112 C 172.081 309.075, 164.445 313.756, 160.229 316.512 C 144.504 326.794, 144.395 329.154, 157.335 379.157 C 166.377 414.097, 171.834 431.852, 179.570 451.500 C 181.953 457.550, 186.128 468.800, 188.849 476.500 C 195.874 496.378, 208.033 525.612, 214.635 538.500 C 217.735 544.550, 224.191 557.163, 228.982 566.528 C 233.774 575.893, 238.820 585.343, 240.196 587.528 C 241.571 589.713, 247.091 599.375, 252.461 609 C 262.069 626.219, 265.808 632.148, 281.469 655 C 294.117 673.456, 301.758 683.725, 312.047 696.094 C 317.351 702.471, 325.070 712.146, 329.200 717.594 C 333.329 723.042, 340.490 731.775, 345.112 737 C 349.733 742.225, 355.509 748.975, 357.947 752 C 365.749 761.683, 436.336 832.070, 440.307 834.127 C 442.667 835.349, 444.921 835.842, 446.238 835.424 C 448.946 834.565, 504.900 779.757, 525.368 757.916 C 563.720 716.991, 593.358 679.174, 628.640 626.145 C 640.310 608.605, 659.895 575.151, 668.318 558.369 C 686.959 521.228, 704.007 477.112, 715.027 437.500 C 716.251 433.100, 718.078 426.575, 719.087 423 C 724.694 403.144, 729.144 379.891, 732.974 350.444 C 734.750 336.792, 734.775 335.428, 733.299 332.928 C 732.283 331.209, 725.135 326.295, 713.750 319.488 C 681.286 300.080, 654.262 278.032, 634.341 254.701 C 623.652 242.182, 607.501 218.358, 597.298 200.061 C 590.361 187.622, 585.389 181.580, 580.282 179.384 C 577.590 178.226, 554.368 178.013, 438.282 178.079 C 350.067 178.129, 298.522 178.516, 296.815 179.141 M 127.966 185.809 C 123.967 187.610, 116 196.158, 116 198.648 C 116 199.303, 120.162 202.970, 125.250 206.797 C 130.338 210.623, 136.525 215.380, 139 217.367 C 141.475 219.355, 143.951 220.985, 144.502 220.990 C 146.404 221.009, 154 207.750, 154 204.413 C 154 196.503, 134.757 182.751, 127.966 185.809 M 449 187.686 C 444.472 189.656, 427.421 206.786, 422.396 214.413 L 418.500 220.326 418 309.913 L 417.500 399.500 315.750 399.755 L 214 400.009 214 423.505 L 214 447 216.250 447.025 C 217.488 447.039, 221.425 447.223, 225 447.434 C 228.575 447.645, 273.220 448.145, 324.211 448.545 L 416.923 449.272 417.243 506.386 C 417.419 537.799, 417.665 608.437, 417.791 663.360 C 417.916 718.284, 418.266 763.621, 418.568 764.110 C 418.871 764.600, 430.955 765, 445.423 765 L 471.728 765 472.364 760.360 C 472.714 757.809, 473.014 741.946, 473.031 725.110 C 473.048 708.275, 473.472 673.350, 473.973 647.500 C 474.474 621.650, 475.206 566.638, 475.598 525.250 L 476.312 450 579.156 450 L 682 450 682 425.607 C 682 405.201, 681.763 401.123, 680.547 400.657 C 679.748 400.350, 641.386 399.964, 595.297 399.800 C 549.209 399.635, 503.512 399.367, 493.750 399.205 L 476 398.911 476 315.537 C 476 269.682, 476.280 231.435, 476.621 230.545 C 477.464 228.348, 482.245 226, 485.873 226 C 490.500 226, 494.591 231.023, 500.988 244.556 C 504.150 251.246, 507.294 257.063, 507.975 257.484 C 509.752 258.583, 517.964 258.257, 521.085 256.965 C 525.511 255.131, 526.382 251.838, 526.761 235.500 L 527.109 220.500 523.305 214.041 C 518.499 205.883, 503.975 191.082, 497.934 188.188 C 493.677 186.148, 491.988 186.006, 472.934 186.082 C 456.972 186.145, 451.734 186.496, 449 187.686 M 754.417 202.825 C 724.951 222.396, 725.672 221.628, 730.877 227.904 L 733.699 231.307 743.100 224.800 C 752.891 218.022, 762 212.470, 762 213.281 C 762 213.792, 758.315 222.250, 754.281 231 C 752.886 234.025, 750.447 239.366, 748.861 242.868 L 745.978 249.236 748.187 253.660 C 749.402 256.093, 750.904 258.506, 751.525 259.021 C 752.284 259.651, 760.333 254.864, 776.077 244.421 C 796.270 231.026, 799.475 228.557, 799.322 226.517 C 799.091 223.448, 796.163 219, 794.374 219 C 793.606 219, 786.875 223.092, 779.415 228.093 C 771.956 233.094, 765.657 236.990, 765.418 236.751 C 764.969 236.302, 767.577 230.305, 776.088 212.215 C 778.790 206.473, 781 200.630, 781 199.232 C 781 196.400, 776.567 189.958, 774.699 190.075 C 774.040 190.117, 764.913 195.854, 754.417 202.825 M 554.452 224.250 C 556.126 231.993, 556.096 234.508, 554.301 237.087 C 545.166 250.211, 543.795 254.722, 546.038 264.266 C 548.135 273.187, 549.264 274.585, 556.179 276.824 C 561.720 278.619, 562.709 278.685, 565.154 277.421 C 566.664 276.639, 568.623 276, 569.507 276 C 571.461 276, 574.456 269.526, 576.691 260.469 C 578.074 254.863, 578.138 252.871, 577.110 247.294 C 575.581 238.997, 573.300 234.586, 567.833 229.355 C 564.078 225.762, 556.430 221, 554.415 221 C 554.049 221, 554.066 222.463, 554.452 224.250 M 130.194 242.750 C 129.126 244.262, 126.130 249.438, 123.536 254.250 C 120.941 259.063, 118.477 263, 118.059 263 C 117.270 263, 84.772 245.207, 80.761 242.579 C 78.041 240.797, 76.940 241.365, 74.130 246 C 71.923 249.639, 71.338 253, 72.910 253 C 73.949 253, 116.999 276.729, 118.450 278.101 C 120.498 280.039, 121.980 278.707, 126.070 271.250 C 128.408 266.988, 131.227 261.925, 132.334 260 C 140.935 245.051, 141.156 244.356, 138.171 241.655 C 135.474 239.214, 132.393 239.637, 130.194 242.750 M 801.750 243.572 C 798.342 245.421, 798.318 246.907, 801.586 253.586 C 803.008 256.493, 804.020 259.593, 803.836 260.475 C 803.646 261.381, 799.796 263.742, 795 265.895 C 790.325 267.994, 782.675 271.492, 778 273.670 C 773.325 275.848, 768.038 278.218, 766.250 278.936 C 764.313 279.715, 763 280.952, 763 281.999 C 763 284.291, 765.684 290.686, 766.982 291.489 C 768.020 292.130, 775.153 289.113, 796.869 278.847 C 803.673 275.631, 809.568 273, 809.971 273 C 810.374 273, 812.172 276.186, 813.967 280.080 C 817.482 287.705, 817.439 287.685, 824.437 285.024 C 827.396 283.899, 827.556 284.570, 820.724 269.500 C 806.769 238.722, 807.884 240.244, 801.750 243.572 M 62.128 270.465 C 59.831 274.795, 59.790 278, 62.033 278 C 62.635 278, 65.588 279.125, 68.594 280.500 C 71.600 281.875, 74.240 283, 74.460 283 C 74.680 283, 77.704 284.298, 81.180 285.884 C 95.935 292.618, 110.872 299, 111.877 299 C 113.277 299, 117.212 291.305, 116.809 289.356 C 116.639 288.534, 112.900 286.277, 108.500 284.340 C 104.100 282.403, 98.475 279.896, 96 278.768 C 82.764 272.738, 66.783 266, 65.715 266 C 65.045 266, 63.431 268.009, 62.128 270.465 M 254.766 280.059 C 252.155 280.493, 249.440 282.186, 245.739 285.686 C 240.921 290.242, 239.897 290.753, 234.328 291.383 L 228.210 292.076 227.684 295.788 C 226.844 301.713, 227.415 379.369, 228.309 380.750 C 228.946 381.734, 247.401 382, 315.040 382 L 400.962 382 401.509 379.750 C 401.810 378.512, 401.931 358.833, 401.778 336.017 L 401.500 294.534 398 293.946 C 393.309 293.158, 389.129 290.841, 385.500 287.019 C 378.897 280.066, 379.537 280.186, 347.124 279.826 L 317.748 279.500 316.252 281.750 C 314.425 284.498, 311.327 284.641, 308.564 282.105 C 306.685 280.380, 304.350 280.176, 282.500 279.824 C 269.300 279.612, 256.820 279.718, 254.766 280.059 M 552.500 282.551 C 543.739 284.694, 541.392 285.845, 540.130 288.615 C 539.447 290.112, 539 297.151, 539 306.388 C 539 314.800, 538.704 328.529, 538.341 336.898 L 537.683 352.113 534.727 352.705 C 530.699 353.510, 525.242 359.195, 524.451 363.407 C 523.511 368.419, 524.680 372.297, 528.443 376.650 L 531.771 380.500 573.805 380.500 L 615.838 380.500 618.514 378 C 624.234 372.656, 625.641 365.204, 622.044 359.304 C 618.682 353.791, 616.909 353.255, 600 352.636 C 591.475 352.324, 584.406 352.053, 584.290 352.034 C 584.175 352.015, 583.950 337.872, 583.790 320.604 C 583.459 284.743, 583.800 286.118, 574.574 283.531 C 566.508 281.269, 559.084 280.940, 552.500 282.551 M 255.750 286.080 C 254.137 287.020, 254.001 289.773, 254.015 321.300 C 254.024 340.110, 254.393 356.070, 254.835 356.767 C 255.458 357.749, 261.591 357.974, 282.069 357.767 L 308.500 357.500 308.764 325.146 L 309.028 292.793 305.132 288.896 L 301.235 285 279.368 285.030 C 266.383 285.048, 256.789 285.475, 255.750 286.080 M 328.164 286.689 C 321.515 289.965, 321.500 290.050, 321.500 323.955 C 321.500 340.755, 321.823 355.288, 322.219 356.250 C 322.878 357.855, 325.158 358, 349.826 358 L 376.715 358 377.358 351.853 C 377.711 348.473, 378 332.755, 378 316.925 C 378 292.093, 377.784 287.927, 376.429 286.571 C 374.049 284.191, 333.030 284.292, 328.164 286.689 M 551.500 285.672 C 540.833 288.019, 540.433 293.617, 550.719 296.607 C 557.120 298.468, 571.976 298.154, 575.859 296.076 C 578.876 294.461, 580.523 290.094, 578.774 288.345 C 576.204 285.776, 558.787 284.069, 551.500 285.672 M 51.526 294.950 C 49.495 298.878, 49.592 302.724, 51.750 303.813 C 52.712 304.298, 57.212 305.748, 61.750 307.034 C 66.489 308.378, 70 309.910, 70 310.635 C 70 312.388, 65.214 327.180, 64.077 328.940 C 63.287 330.163, 61.949 329.975, 55.202 327.690 C 43.932 323.874, 42.339 324.029, 40.980 329.075 C 39.366 335.067, 39.946 336.328, 45.009 337.848 C 47.479 338.589, 57.150 341.604, 66.500 344.548 C 91.502 352.420, 92.753 352.708, 94.306 350.959 C 96.239 348.783, 98.326 341.925, 97.351 340.958 C 96.883 340.494, 94.700 339.675, 92.500 339.138 C 85.155 337.344, 76.509 334.699, 75.704 334 C 75.266 333.619, 75.872 329.976, 77.052 325.904 C 78.231 321.832, 79.430 317.481, 79.717 316.235 C 80.004 314.990, 80.601 313.747, 81.044 313.473 C 81.487 313.199, 86.271 314.556, 91.675 316.487 C 97.079 318.419, 102.201 320, 103.058 320 C 104.741 320, 108 313.602, 108 310.296 C 108 308.656, 106.793 307.926, 101.750 306.515 C 98.313 305.553, 89.650 302.825, 82.500 300.453 C 67.766 295.565, 55.819 292, 54.168 292 C 53.554 292, 52.365 293.328, 51.526 294.950 M 808 303.185 C 795.625 307.029, 783.700 310.729, 781.500 311.408 C 778.129 312.449, 777.542 313.025, 777.770 315.071 C 777.999 317.127, 783.165 334.738, 785.962 343 C 786.428 344.375, 787.374 347.687, 788.065 350.360 L 789.322 355.220 793.298 354.687 C 800.398 353.735, 800.503 353.092, 796.001 338.126 C 793.800 330.811, 792 324.034, 792 323.065 C 792 321.828, 793.523 320.812, 797.115 319.652 C 799.928 318.743, 802.821 318, 803.544 318 C 804.286 318, 805.573 320.501, 806.502 323.750 C 813.056 346.665, 812.846 346.345, 819.485 343.571 C 823.756 341.786, 823.766 342.117, 818.948 327.002 C 815.163 315.129, 815.190 314.422, 819.492 313.003 C 825.786 310.926, 826.142 311.345, 830.558 326.014 L 834.618 339.500 838.848 339.411 C 845.533 339.270, 845.721 338.501, 842.064 326.299 C 840.284 320.360, 837.913 312.350, 836.796 308.500 C 834.588 300.889, 832.366 295.943, 831.224 296.098 C 830.826 296.153, 820.375 299.342, 808 303.185 M 238.667 298.667 C 238.300 299.033, 238 312.478, 238 328.544 C 238 360.003, 238.091 360.550, 243.195 359.827 L 245.500 359.500 245.790 332 C 246.134 299.423, 245.980 298, 242.121 298 C 240.588 298, 239.033 298.300, 238.667 298.667 M 542.733 301.250 C 542.461 303.038, 542.297 315.075, 542.369 328 L 542.500 351.500 560.595 351.772 L 578.690 352.044 579.345 339.865 C 580.228 323.453, 580.148 300.781, 579.202 299.293 C 578.610 298.361, 577.532 298.408, 574.468 299.499 C 569.255 301.356, 555.915 301.356, 549 299.500 C 545.975 298.688, 543.439 298.018, 543.363 298.012 C 543.288 298.005, 543.004 299.462, 542.733 301.250 M 383.368 300.193 C 382 302.372, 381.590 355.366, 382.923 357.856 C 384.208 360.256, 388.141 360.740, 389.830 358.705 C 391.035 357.253, 391.282 319.504, 390.168 307 C 389.529 299.823, 389.385 299.487, 386.844 299.193 C 385.384 299.024, 383.819 299.474, 383.368 300.193 M 45.030 356.113 C 40.610 357.876, 36.102 361.970, 33.285 366.777 C 30.895 370.855, 30.525 372.557, 30.523 379.493 C 30.521 388.845, 32.466 393.478, 38.797 399.197 C 44.613 404.452, 52.328 407, 62.423 407 C 69.619 407, 71.510 406.614, 76.118 404.207 C 85.462 399.326, 89.983 391.324, 89.994 379.651 C 90.001 372.421, 88.117 368.284, 82.427 363.040 C 76.678 357.740, 74.762 357.843, 71.369 363.633 L 68.654 368.266 73.827 372.723 C 78.784 376.994, 79 377.390, 79 382.222 C 79 386.708, 78.606 387.635, 75.429 390.632 C 71.982 393.882, 71.576 394, 63.795 394 C 50.399 394, 43.769 390.671, 41.329 382.719 C 39.801 377.741, 42.479 371.985, 47.924 368.548 C 51.696 366.167, 52 365.643, 52 361.523 C 52 358.144, 51.533 356.821, 50.066 356.035 C 47.841 354.844, 48.222 354.838, 45.030 356.113 M 837.960 356.358 C 837.707 356.602, 833.675 357.289, 829 357.884 C 824.325 358.478, 814.213 359.873, 806.529 360.982 C 798.845 362.092, 792.432 363, 792.279 363 C 791.321 363, 792.244 372.951, 793.341 374.452 C 794.565 376.125, 795.246 376.184, 801.091 375.119 C 804.616 374.478, 809.750 373.851, 812.500 373.726 L 817.500 373.500 817.240 378 C 816.993 382.286, 816.504 382.955, 806.975 392.047 C 797.947 400.660, 797.015 401.883, 797.443 404.547 C 797.703 406.171, 798.181 409.192, 798.505 411.260 C 799.263 416.097, 799.804 415.810, 812.361 403.927 C 817.701 398.873, 822.191 394.909, 822.338 395.119 C 822.485 395.328, 823.394 396.759, 824.357 398.298 C 826.895 402.351, 831.800 404.992, 836.800 404.996 C 842.201 405.001, 845.657 403.229, 850.325 398.062 C 853.208 394.871, 854 393.170, 854 390.171 C 854 386.579, 851.998 371.044, 850.240 361 L 849.453 356.500 843.937 356.206 C 840.903 356.045, 838.213 356.113, 837.960 356.358 M 254.250 366.654 C 252.458 367.389, 252.706 371.673, 254.582 372.393 C 255.452 372.727, 267.855 373, 282.145 373 L 308.127 373 307.813 369.750 L 307.500 366.500 281.500 366.320 C 267.200 366.222, 254.938 366.372, 254.250 366.654 M 325.250 367.022 C 324.012 367.525, 323.007 368.513, 323.015 369.218 C 323.060 372.927, 323.967 373.040, 351.569 372.767 L 378.500 372.500 378.500 369.500 L 378.500 366.500 353 366.305 C 338.975 366.197, 326.488 366.520, 325.250 367.022 M 837 369.549 C 836.175 369.724, 833.750 370.154, 831.611 370.505 L 827.722 371.143 828.303 377.821 C 829.374 390.148, 831.987 393.521, 838.707 391.253 C 841.456 390.325, 841.499 390.185, 841.448 382.405 C 841.394 374.239, 840.505 368.914, 839.231 369.116 C 838.829 369.180, 837.825 369.375, 837 369.549 M 68.742 443.807 C 67.979 444.729, 67.954 447.820, 68.657 454.307 C 69.205 459.363, 69.501 463.692, 69.316 463.928 C 69.130 464.163, 65.168 462.475, 60.511 460.178 C 55.854 457.880, 51.461 456, 50.749 456 C 49.234 456, 44.483 469.211, 45.265 471.248 C 45.557 472.009, 48.429 473.221, 51.648 473.941 C 62.722 476.418, 65 477.079, 65 477.815 C 65 478.221, 61.850 481.680, 58 485.500 C 54.150 489.320, 51 492.977, 51 493.625 C 51 494.273, 53.775 496.866, 57.167 499.386 C 61.541 502.637, 63.684 503.677, 64.540 502.967 C 65.203 502.416, 67.918 498.373, 70.572 493.983 C 73.226 489.592, 75.752 486, 76.186 486 C 76.619 486, 79.093 489.648, 81.684 494.107 C 84.275 498.566, 86.999 502.446, 87.738 502.730 C 89.112 503.257, 100.143 496.070, 100.749 494.253 C 100.933 493.701, 98.140 490.041, 94.542 486.120 C 90.944 482.200, 88 478.552, 88 478.015 C 88 477.478, 89.013 476.830, 90.250 476.575 C 105.991 473.334, 108 472.754, 108 471.453 C 108 470.677, 107.024 467.070, 105.832 463.437 C 103.309 455.751, 103.871 455.833, 91.278 461.318 C 86.713 463.307, 82.798 464.482, 82.476 463.960 C 82.156 463.444, 82.368 460.458, 82.947 457.327 C 83.526 454.195, 84 449.727, 84 447.398 L 84 443.164 76.911 442.832 C 71.950 442.600, 69.498 442.892, 68.742 443.807 M 800.463 445.059 C 800.075 445.688, 800.074 450.674, 800.461 456.138 L 801.165 466.073 798.333 464.757 C 796.775 464.033, 792.847 462.193, 789.605 460.669 C 786.363 459.144, 783.148 458.113, 782.461 458.377 C 780.930 458.964, 776.617 471.559, 777.319 473.390 C 777.603 474.128, 781.714 475.501, 786.663 476.508 C 791.523 477.499, 795.868 478.630, 796.318 479.022 C 796.767 479.414, 793.964 483.156, 790.087 487.337 C 786.211 491.517, 783.280 495.515, 783.574 496.219 C 784.252 497.841, 793.460 505, 794.868 505 C 796.514 505, 799.347 501.537, 803.473 494.482 C 805.558 490.917, 807.618 488, 808.050 488 C 808.483 488, 810.963 491.600, 813.561 496 C 817.113 502.015, 818.808 503.994, 820.393 503.975 C 823.124 503.943, 832 497.435, 832 495.465 C 832 494.632, 829.300 491.047, 826 487.500 C 822.700 483.953, 820 480.598, 820 480.044 C 820 478.973, 820.733 478.771, 831.216 476.952 C 834.910 476.311, 838.426 475.191, 839.030 474.464 C 839.840 473.487, 839.577 471.295, 838.021 466.071 C 835.507 457.629, 835.261 457.564, 824.431 462.500 C 814.107 467.204, 813.682 467.150, 814.685 461.250 C 815.129 458.637, 815.495 453.800, 815.496 450.500 L 815.500 444.500 808.335 444.208 C 803.743 444.021, 800.916 444.326, 800.463 445.059 M 336.193 469.072 C 321.881 470.931, 313.204 475.698, 303.567 487 C 294.992 497.057, 290.908 507.867, 288.595 526.636 C 288.080 530.812, 288.260 531.886, 289.563 532.386 C 290.444 532.724, 298.976 533.295, 308.524 533.655 L 325.884 534.310 326.462 531.405 C 327.675 525.313, 333.510 515.588, 337.732 512.621 C 342.859 509.017, 350.229 508.033, 354.715 510.352 C 359.570 512.863, 363.940 516.961, 365.938 520.878 C 369.606 528.068, 372.532 558.685, 370.987 573.706 C 368.911 593.886, 364.012 603.666, 353.500 608.622 C 348.200 611.120, 344.126 611.060, 338.880 608.408 C 335.248 606.571, 327.764 598.031, 323.332 590.665 C 321.291 587.274, 319.145 584.163, 318.561 583.751 C 317.977 583.338, 310.975 583.113, 303 583.251 L 288.500 583.500 288.677 591 C 288.975 603.621, 295.757 621.593, 304.175 632.068 C 312.934 642.968, 327.510 650.809, 341.500 652.148 C 363.111 654.215, 375.979 648.735, 391.844 630.709 C 399.656 621.833, 402.899 615.569, 407.570 600.338 C 411.176 588.583, 411.205 588.342, 411.740 565.931 C 412.748 523.664, 409.059 506.707, 395.129 489.579 C 385.344 477.547, 375.202 470.888, 363.862 469.047 C 356.594 467.868, 345.391 467.878, 336.193 469.072 M 528.988 469.001 C 518.755 470.737, 507.314 479.157, 497.565 492.126 C 486.666 506.624, 484.029 517.441, 483.293 550.662 C 482.542 584.548, 484.318 596.512, 492.914 615.471 C 499.470 629.929, 516.199 646.580, 528.160 650.553 C 532.184 651.890, 535.904 652.137, 546.842 651.793 C 559.843 651.385, 560.837 651.204, 567.500 648.018 C 572.626 645.568, 576.673 642.506, 582.615 636.586 C 591.196 628.036, 594.096 623.297, 598.359 610.865 C 601.198 602.587, 604.177 585.227, 602.895 584.435 C 602.459 584.166, 595.645 583.667, 587.752 583.326 L 573.401 582.706 567.996 591.914 C 556.127 612.134, 544.827 615.800, 532.810 603.329 C 524.001 594.188, 520.651 575.747, 522.939 549 C 525.176 522.843, 527.986 515.758, 538.136 510.681 C 543.338 508.078, 544.107 507.952, 548.134 509.036 C 556.098 511.181, 563.059 520.152, 565.488 531.404 L 566.115 534.308 583.001 533.644 C 592.289 533.279, 600.493 532.748, 601.232 532.464 C 602.292 532.058, 602.424 530.202, 601.853 523.724 C 600.864 512.501, 599.468 506.832, 595.949 499.738 C 589.438 486.616, 578.801 475.643, 569.142 472.085 C 559.161 468.408, 540.797 466.997, 528.988 469.001 M 128.708 524.090 C 121.068 528.122, 119.130 535.970, 123.107 546.775 C 124.266 549.924, 125.705 554.471, 126.305 556.880 C 127.313 560.926, 127.220 561.403, 125.087 563.130 C 121.851 565.751, 120.563 565.504, 116.003 561.384 C 111.447 557.268, 110.812 553.560, 113.643 547.622 C 115.198 544.362, 115.181 543.995, 113.337 540.838 C 111.827 538.251, 110.725 537.500, 108.444 537.500 C 105.884 537.500, 105.132 538.217, 102.680 543 C 100.579 547.098, 99.981 549.452, 100.333 552.233 C 101.748 563.418, 113.846 577, 122.395 577 C 127.971 577, 134.577 572.565, 137.589 566.800 C 139.760 562.645, 139.294 557.500, 135.776 546.768 C 133.305 539.229, 132.804 536.532, 133.628 535.216 C 135.347 532.474, 138.391 532.664, 141.435 535.704 C 145.376 539.639, 146.240 542.466, 144.886 546.986 C 143.882 550.337, 144.019 551.262, 146.059 554.891 C 147.329 557.151, 148.756 559, 149.230 559 C 151.114 559, 154.922 554.005, 155.951 550.183 C 157.282 545.239, 156.165 539.494, 152.965 534.828 C 144.855 523.003, 137.194 519.611, 128.708 524.090 M 159.250 554.944 C 156.175 557.509, 156.412 559.443, 160.500 565.133 C 162.425 567.812, 164 570.394, 164 570.869 C 164 571.345, 160.963 573.807, 157.250 576.340 C 149.956 581.318, 130.142 595.525, 129.252 596.414 C 128.376 597.291, 133.894 605, 135.398 605 C 136.859 605, 144.361 600.054, 160.500 588.449 C 166 584.495, 170.950 581.440, 171.500 581.662 C 172.050 581.884, 174.075 584.291, 176 587.010 C 179.869 592.476, 183.316 593.518, 186.369 590.145 C 188.627 587.649, 188.218 586.801, 177.134 571 C 163.419 551.449, 163.429 551.458, 159.250 554.944 M 726.004 559.144 C 722.264 563.222, 721.429 566.065, 723.070 569.131 C 726.037 574.674, 752.338 614, 753.079 614 C 754.555 614, 759 607.361, 759 605.156 C 759 603.971, 757.784 600.823, 756.298 598.161 L 753.595 593.321 758.207 586.858 C 764.702 577.756, 765.110 577.491, 770.360 578.961 C 776.852 580.778, 779.113 580.089, 781.706 575.500 C 782.948 573.300, 783.836 571.090, 783.679 570.588 C 783.521 570.087, 772.166 566.853, 758.446 563.402 C 744.726 559.951, 732.506 556.826, 731.290 556.458 C 729.584 555.940, 728.381 556.552, 726.004 559.144 M 738 570.738 C 738 572.339, 745.889 584, 746.972 584 C 748.472 584, 754.172 575.767, 753.271 574.901 C 752.847 574.494, 750.025 573.501, 747 572.694 C 743.975 571.888, 740.712 570.904, 739.750 570.507 C 738.788 570.111, 738 570.214, 738 570.738 M 700.121 594.573 C 697.874 597.430, 696.529 600.862, 697.339 601.672 C 697.625 601.959, 703.148 605.882, 709.612 610.392 C 716.075 614.901, 721.567 619.201, 721.816 619.948 C 722.180 621.041, 721.117 621.171, 716.384 620.613 C 713.148 620.231, 704.684 619.475, 697.575 618.933 L 684.650 617.947 681.325 621.170 C 679.496 622.942, 678 625.166, 678 626.111 C 678 627.056, 680.138 629.360, 682.750 631.230 C 685.362 633.100, 694.758 639.888, 703.628 646.315 C 712.499 652.742, 720.599 657.981, 721.628 657.958 C 723.778 657.909, 728.199 651.587, 727.378 649.736 C 727.076 649.056, 723.048 646.025, 718.426 643 C 713.804 639.975, 708.330 636.015, 706.262 634.201 L 702.500 630.902 712.500 631.473 C 718 631.787, 726.205 632.311, 730.733 632.638 L 738.966 633.234 742.483 629.717 C 744.417 627.783, 746 625.506, 746 624.658 C 746 623.811, 743.413 621.153, 740.250 618.753 C 734.720 614.556, 705.736 594.077, 703.330 592.667 C 702.671 592.280, 701.270 593.112, 700.121 594.573 M 185.500 600.490 C 182.750 601.221, 173.975 603.483, 166 605.516 C 143.892 611.153, 141 612.050, 141 613.267 C 141 613.886, 142.213 616.143, 143.696 618.283 C 146.071 621.710, 146.756 622.107, 149.446 621.616 C 160.632 619.574, 159.159 619.064, 164.907 626.967 C 167.767 630.900, 170.337 634.714, 170.616 635.442 C 170.895 636.170, 169.687 638.804, 167.932 641.295 C 164.202 646.586, 164.392 648.826, 168.996 653.847 C 170.684 655.688, 173.183 659.401, 174.549 662.097 C 175.916 664.794, 177.274 667, 177.569 667 C 177.863 667, 179.877 665.987, 182.044 664.750 C 186.601 662.148, 187.096 659.663, 183.875 655.568 C 181.981 653.160, 181.312 652.940, 177.723 653.547 L 173.697 654.227 176.057 650.364 C 177.355 648.239, 183.948 638.199, 190.708 628.053 C 197.469 617.907, 203 608.810, 203 607.838 C 203 606.865, 201.603 604.479, 199.896 602.535 C 196.408 598.562, 194.027 598.224, 185.500 600.490 M 183.500 612.650 C 178.633 613.668, 170.957 616.261, 170.468 617.052 C 169.935 617.914, 176.656 626.022, 177.866 625.976 C 178.621 625.948, 187 613.802, 187 612.738 C 187 611.969, 186.784 611.963, 183.500 612.650 M 664.633 644.979 C 663.185 647.167, 662 649.559, 662 650.295 C 662 651.031, 665.003 653.547, 668.674 655.888 C 679.326 662.679, 693.743 673.906, 694.218 675.779 C 695.011 678.905, 693.033 683.794, 689.916 686.417 C 684.709 690.798, 681.227 689.825, 669 680.568 C 653.398 668.757, 650.890 667, 649.635 667 C 648.183 667, 643 673.834, 643 675.749 C 643 676.690, 655.613 685.952, 672.868 697.682 C 681.392 703.476, 688.458 702.638, 696.180 694.915 C 702.690 688.406, 706.414 680.369, 705.731 674.308 C 705.134 669.008, 701.444 664.748, 690.500 656.721 C 686.650 653.897, 680.290 649.205, 676.368 646.294 C 672.445 643.382, 668.792 641, 668.251 641 C 667.709 641, 666.081 642.790, 664.633 644.979 M 226.445 662.803 C 202.604 679.111, 193 686.321, 193 687.908 C 193 689.745, 197.403 695.974, 198.711 695.988 C 199.378 695.994, 203.558 693.525, 208 690.500 C 212.442 687.475, 216.705 685, 217.471 685 C 218.238 685, 219.173 685.969, 219.548 687.152 C 220.926 691.492, 220.046 696.924, 216.495 706.012 C 212.489 716.264, 212.529 717.747, 216.946 723 C 219.554 726.101, 220.057 726.329, 221.358 725 C 223.140 723.179, 228.983 708.292, 229.011 705.500 C 229.052 701.372, 230.475 700.523, 234.308 702.342 C 238.652 704.403, 244.195 704.468, 247.998 702.501 C 254.551 699.112, 258.772 689.282, 255.987 683.894 C 253.862 679.782, 237.696 656, 237.026 656 C 236.676 656, 231.914 659.061, 226.445 662.803 M 229.509 675.406 L 225.518 678.782 229.452 684.494 C 231.616 687.636, 234.467 690.915, 235.787 691.780 C 237.994 693.226, 238.464 693.205, 241.594 691.519 C 243.864 690.297, 245 688.959, 245 687.508 C 245 684.365, 236.235 672.032, 234 672.030 C 233.725 672.030, 231.704 673.549, 229.509 675.406 M 629.344 697.420 C 623.438 700.170, 617.182 707.337, 614.455 714.478 C 612.099 720.647, 612.915 729.473, 616.389 735.401 C 621.872 744.756, 633.699 752, 643.490 752 C 657.127 752, 669.639 738.214, 671.694 720.924 C 672.297 715.847, 673.143 716.879, 660.630 707.432 C 657.401 704.994, 654.406 703, 653.974 703 C 653.220 703, 645.265 713.396, 641.441 719.380 C 639.602 722.257, 639.602 722.261, 642.356 724.630 C 646.127 727.874, 647.394 727.637, 651.129 722.989 C 653.638 719.867, 654.813 719.121, 656.427 719.623 C 657.567 719.979, 658.853 720.771, 659.285 721.385 C 660.745 723.460, 658.945 730.282, 655.933 734.084 C 650.499 740.946, 641.730 741.662, 633.393 735.926 C 624.149 729.566, 621.682 721.726, 626.616 714.390 C 628.054 712.250, 629.370 710.347, 629.540 710.159 C 629.709 709.972, 632.232 709.289, 635.146 708.642 C 639.396 707.698, 640.894 706.797, 642.722 704.085 C 645.712 699.647, 645.626 697.188, 642.435 695.975 C 638.404 694.443, 634.911 694.828, 629.344 697.420 M 255.500 704.686 C 246.768 706.668, 235.404 715.473, 231.263 723.463 C 229.025 727.783, 229.104 738.588, 231.408 743.289 C 233.845 748.262, 241.445 756.656, 245.380 758.720 C 250.308 761.305, 260.891 760.777, 267.333 757.625 C 283.875 749.532, 290.641 734.092, 283.672 720.340 C 278.180 709.501, 265.450 702.427, 255.500 704.686 M 255.852 717.391 C 251.257 719.032, 247.530 721.950, 243.898 726.746 C 241.709 729.637, 241.049 731.601, 241.028 735.289 C 241.004 739.464, 241.480 740.589, 244.750 744.073 C 249.806 749.460, 253.961 750.119, 261.157 746.675 C 267.180 743.793, 268.377 742.877, 272.256 738.173 C 277.738 731.526, 274.737 720.877, 266.400 717.394 C 262.350 715.701, 260.583 715.701, 255.852 717.391 M 287.071 748.752 C 281.364 751.662, 279.494 755.156, 279.538 762.827 C 279.567 767.711, 280.304 771.289, 282.288 776.171 C 285.517 784.112, 285.639 786.112, 283.040 788.464 C 280.439 790.818, 276.565 789.816, 272.837 785.826 C 268.983 781.700, 268.387 778.685, 270.500 774 C 272.457 769.660, 272.037 766.749, 268.920 763.050 C 267.322 761.153, 266.478 760.828, 265.178 761.607 C 262.721 763.080, 257.996 772.865, 258.022 776.429 C 258.074 783.683, 267.356 796.943, 274.637 800.164 C 278.787 801.999, 279.396 802.027, 284.298 800.602 C 287.646 799.628, 290.745 797.827, 292.906 795.597 C 297.799 790.549, 298.075 785.271, 294.085 773.041 C 290.604 762.369, 290.304 759.481, 292.582 758.607 C 295.153 757.620, 295.603 757.826, 299.386 761.721 C 303.165 765.612, 303.990 769.281, 301.945 773.104 C 300.705 775.420, 301.333 777.882, 304.040 781.324 C 306.543 784.506, 309.288 783.872, 311.858 779.516 C 316.194 772.167, 315.525 766.184, 309.368 757.244 C 303.051 748.073, 294.666 744.879, 287.071 748.752 M 583.487 757.013 C 578.531 762.187, 579.225 764.362, 592.100 784 C 598.411 793.625, 604.907 803.637, 606.537 806.248 C 608.167 808.860, 610.009 810.997, 610.631 810.998 C 611.850 811, 616.253 805.571, 617.267 802.816 C 617.654 801.765, 616.781 799.741, 614.943 797.429 C 610.713 792.105, 610.943 790.990, 618.283 781.250 C 622.592 775.534, 624.105 775.052, 631.140 777.160 C 634.944 778.300, 635.072 778.252, 638.464 774.410 C 643.886 768.269, 643.405 767.547, 632 764.706 C 612.072 759.742, 588.098 754, 587.297 754 C 586.789 754, 585.075 755.356, 583.487 757.013 M 596 768.997 C 596 770.199, 604.243 781.936, 605.114 781.973 C 606.007 782.012, 611 774.600, 611 773.236 C 611 772.601, 608.028 771.162, 604.395 770.040 C 596.878 767.718, 596 767.609, 596 768.997 M 309.500 798.643 C 282.455 805.311, 278 806.773, 278 808.981 C 278 810.007, 279.426 812.272, 281.168 814.014 C 283.830 816.676, 284.830 817.078, 287.418 816.527 C 297.110 814.464, 296.391 814.229, 301.136 821.014 C 303.536 824.445, 306.093 828.059, 306.818 829.045 C 307.917 830.540, 307.887 831.318, 306.634 833.741 C 305.808 835.339, 304.427 837.230, 303.566 837.945 C 301.451 839.701, 301.601 842.834, 303.989 846.750 C 306.651 851.116, 309.361 850.955, 312.372 846.250 C 313.692 844.188, 320.022 834.449, 326.439 824.609 C 332.856 814.770, 338.345 805.523, 338.638 804.060 C 338.982 802.342, 338.397 800.093, 336.986 797.701 C 334.141 792.879, 332.671 792.930, 309.500 798.643 M 315.799 808.831 C 307.649 811.217, 307.087 812.075, 310.474 816.962 C 312.013 819.183, 313.658 821, 314.130 821 C 315.098 821, 320.435 813.924, 322.615 809.750 C 324.324 806.478, 323.992 806.433, 315.799 808.831 M 544.779 811.756 C 543.832 813.265, 542.482 815.324, 541.779 816.332 C 540.692 817.889, 540.801 818.382, 542.500 819.614 C 543.600 820.411, 549.225 824.419, 555 828.519 C 560.775 832.620, 569.516 838.884, 574.425 842.439 C 579.938 846.432, 583.847 848.626, 584.648 848.177 C 585.362 847.778, 590.455 841.080, 595.967 833.292 C 606.014 819.099, 606.930 816.747, 602.908 815.471 C 601.858 815.138, 601 814.413, 601 813.859 C 601 811.178, 597.588 814.416, 590.563 823.763 C 585.765 830.147, 582.406 833.768, 581.675 833.345 C 579.664 832.179, 559.792 817.899, 553.834 813.338 C 550.718 810.952, 547.793 809.003, 547.334 809.006 C 546.876 809.010, 545.725 810.247, 544.779 811.756" stroke="none" fill="#1b7906" fill-rule="evenodd"/></svg>